# xmcd CD database file
#
# Track frame offsets:
#	150
#	15900
#	35400
#
# Disc length: 679 seconds
#
# Revision: 5
# Processed by: cddbd v1.5.2PL0 Copyright (c) Steve Scherf et al.
# Submitted via: CDex 1.70beta2
#
DISCID=1402a503
DTITLE=安倍なつみ - 恋のテレフォンGOAL
DYEAR=2004
DGENRE=Hello!Project
TTITLE0=恋のテレフォンGOAL
TTITLE1=OLの事情
TTITLE2=恋のテレフォンGOAL (Instrumental)
EXTD=YEAR: 2004
EXTT0=
EXTT1=
EXTT2=
PLAYORDER=
